<svg id="Layer_1" data-name="Layer 1" xmlns="http://www.w3.org/2000/svg" xmlns:xlink="http://www.w3.org/1999/xlink" width="304.965" height="168.215" viewBox="0 0 609.93 336.43"><defs><style>.cls-1{fill:none;stroke-width:3px;}.cls-1,.cls-3,.cls-4,.cls-5,.cls-6,.cls-7,.cls-8{stroke:#231f20;stroke-miterlimit:10;}.cls-2{fill:#231f20;}.cls-3{fill:#27aae1;}.cls-3,.cls-4,.cls-5,.cls-6,.cls-7,.cls-8{stroke-width:2px;}.cls-4{fill:#ed1c24;}.cls-5{fill:#21409a;}.cls-6{fill:#00a14b;}.cls-7{fill:#ffde17;}.cls-8{fill:#f7941d;}.cls-9{fill:url(#radial-gradient);}</style><radialGradient id="radial-gradient" cx="304.97" cy="168.22" r="235.64" gradientUnits="userSpaceOnUse"><stop offset="0.79" stop-color="#fff" stop-opacity="0.9"/><stop offset="0.81" stop-color="#fff" stop-opacity="0.84"/><stop offset="0.85" stop-color="#fff" stop-opacity="0.68"/><stop offset="0.91" stop-color="#fff" stop-opacity="0.43"/><stop offset="0.98" stop-color="#fff" stop-opacity="0.09"/><stop offset="1" stop-color="#fff" stop-opacity="0"/></radialGradient></defs><title>libis-logo</title><line class="cls-1" x1="123.6" y1="128.13" x2="442.78" y2="62.14"/><path class="cls-2" d="M472.48,66.49c-7.7,4.82-17,12.24-22.22,19.16l2.16-15-7.94-12.93C452.05,62,463.5,65.12,472.48,66.49Z" transform="translate(-11.97 -8.02)"/><rect class="cls-3" x="35.47" y="-13.48" width="80" height="125" rx="12" transform="translate(14.48 116.47) rotate(-90)"/><rect class="cls-4" x="38.5" y="16" width="50" height="50"/><rect class="cls-3" x="35.47" y="71.33" width="80" height="125" rx="12" transform="translate(-70.33 201.28) rotate(-90)"/><rect class="cls-5" x="38.5" y="100.81" width="50" height="50"/><rect class="cls-3" x="35.47" y="156.14" width="80" height="125" rx="12" transform="translate(-155.14 286.09) rotate(-90)"/><rect class="cls-6" x="38.5" y="185.62" width="50" height="50"/><rect class="cls-3" x="36.47" y="240.95" width="80" height="125" rx="12" transform="translate(-238.95 371.9) rotate(-90)"/><rect class="cls-7" x="39.5" y="270.43" width="50" height="50"/><rect class="cls-8" x="462.93" y="1" width="146" height="100" rx="12"/><rect class="cls-4" x="480.8" y="26" width="50" height="50"/><rect class="cls-5" x="541.06" y="26" width="50" height="50"/><rect class="cls-8" x="462.93" y="118.22" width="146" height="100" rx="12"/><rect class="cls-6" x="510.93" y="143.22" width="50" height="50"/><rect class="cls-8" x="462.93" y="235.43" width="146" height="100" rx="12"/><rect class="cls-7" x="510.93" y="260.43" width="50" height="50"/><line class="cls-1" x1="126.99" y1="41.3" x2="441.58" y2="41.3"/><path class="cls-2" d="M471.65,49.32c-8.52,3.16-19.09,8.55-25.64,14.26l5.16-14.26L446,35.05C452.56,40.76,463.13,46.16,471.65,49.32Z" transform="translate(-11.97 -8.02)"/><line class="cls-1" x1="126.29" y1="211.3" x2="440.94" y2="171.2"/><path class="cls-2" d="M470.87,176.92c-8.05,4.22-17.86,10.9-23.63,17.4l3.31-14.81L443.63,166C450.85,170.85,462,174.87,470.87,176.92Z" transform="translate(-11.97 -8.02)"/><line class="cls-1" x1="127.86" y1="296.39" x2="443.15" y2="292.4"/><path class="cls-2" d="M473.22,300.18c-8.48,3.27-19,8.8-25.46,14.6l5-14.34-5.34-14.19C454,291.88,464.66,297.13,473.22,300.18Z" transform="translate(-11.97 -8.02)"/><ellipse class="cls-9" cx="304.97" cy="168.22" rx="300" ry="145.11"/><path class="cls-2" d="M113,110.93H86.86V98.33h41.69V210.11h26.36v12.78H84V210.11H113Z" transform="translate(-11.97 -8.02)"/><path class="cls-2" d="M212.3,147.08H186.12v-12.7h41.69v75.73h26.36v12.78h-71V210.11H212.3Zm5.37-49.81a12.06,12.06,0,0,1,4.76.93,11.4,11.4,0,0,1,3.84,2.6,12.43,12.43,0,0,1,2.56,3.83,12.44,12.44,0,0,1,0,9.39,12.42,12.42,0,0,1-2.56,3.88,11.55,11.55,0,0,1-3.84,2.6,12.77,12.77,0,0,1-9.52,0,11.51,11.51,0,0,1-3.83-2.6,12.42,12.42,0,0,1-2.56-3.88,12.44,12.44,0,0,1,0-9.39,12.43,12.43,0,0,1,2.56-3.83,11.36,11.36,0,0,1,3.83-2.6A12.13,12.13,0,0,1,217.67,97.27Z" transform="translate(-11.97 -8.02)"/><path class="cls-2" d="M357,177.05a59.31,59.31,0,0,1-3,19.7,41.52,41.52,0,0,1-8.64,14.72,37.13,37.13,0,0,1-13.62,9.26A48.28,48.28,0,0,1,313.67,224a89,89,0,0,1-16-1.5,82.57,82.57,0,0,1-16.22-4.76V98.33h15.34v34.29L296,149q6.61-8.91,14.15-12.57a36.67,36.67,0,0,1,16.18-3.65A27,27,0,0,1,339.68,136a27.71,27.71,0,0,1,9.61,8.95,42.36,42.36,0,0,1,5.81,13.93A78.34,78.34,0,0,1,357,177.05Zm-15.69.7a75.28,75.28,0,0,0-1-12.78,33.41,33.41,0,0,0-3.22-10,17.74,17.74,0,0,0-5.64-6.48,14.3,14.3,0,0,0-8.2-2.33,19.87,19.87,0,0,0-5.91.92,24.09,24.09,0,0,0-6.21,3.09,46.06,46.06,0,0,0-6.79,5.73,89.41,89.41,0,0,0-7.62,8.86v42.93a59.56,59.56,0,0,0,9.16,2.77,41.87,41.87,0,0,0,8.91,1,30.35,30.35,0,0,0,10.09-1.68,20.75,20.75,0,0,0,8.46-5.6,27.94,27.94,0,0,0,5.82-10.4A51.45,51.45,0,0,0,341.35,177.75Z" transform="translate(-11.97 -8.02)"/><path class="cls-2" d="M408.26,120.9H381.73V107.67h68.93V120.9H424.13v88.59h26.53v13.4H381.73v-13.4h26.53Z" transform="translate(-11.97 -8.02)"/><path class="cls-2" d="M553.71,191.68a29.67,29.67,0,0,1-3.35,14.37A29.13,29.13,0,0,1,541,216.32a43.26,43.26,0,0,1-14.42,6.13,79.35,79.35,0,0,1-18.55,2c-3.06,0-6.1-.11-9.13-.35s-5.93-.53-8.72-.88-5.42-.76-7.89-1.23-4.71-1-6.7-1.5V205.35a81.64,81.64,0,0,0,14.85,3.87,110.88,110.88,0,0,0,18.73,1.41,59.84,59.84,0,0,0,12.92-1.19,24.86,24.86,0,0,0,8.73-3.52,14,14,0,0,0,4.93-5.69,18.11,18.11,0,0,0,1.54-7.67,12.45,12.45,0,0,0-2.6-8,25.42,25.42,0,0,0-6.83-5.91,63.32,63.32,0,0,0-9.65-4.76q-5.43-2.16-11.06-4.45c-3.77-1.53-7.45-3.19-11.07-5a46.07,46.07,0,0,1-9.65-6.35,29.3,29.3,0,0,1-6.83-8.59,24.79,24.79,0,0,1-2.6-11.73,29.13,29.13,0,0,1,2.47-11.64A27.88,27.88,0,0,1,487.16,116a39.67,39.67,0,0,1,13.35-7.18A61.48,61.48,0,0,1,520,106.09c1.94,0,4,.08,6.3.26s4.55.43,6.88.75,4.61.69,6.87,1.1,4.37.85,6.31,1.32v14.11a106.36,106.36,0,0,0-13.58-2.95,88.42,88.42,0,0,0-13.14-1q-13.49,0-19.83,4.5a14.07,14.07,0,0,0-6.35,12.07,12.74,12.74,0,0,0,2.6,8,26,26,0,0,0,6.84,6,59.44,59.44,0,0,0,9.65,4.8q5.41,2.17,11.06,4.46t11.07,5a45,45,0,0,1,9.65,6.48,30.06,30.06,0,0,1,6.83,8.77A25.63,25.63,0,0,1,553.71,191.68Z" transform="translate(-11.97 -8.02)"/></svg>
